<mxfile host="Electron" modified="2024-04-03T03:47:07.557Z" agent="Mozilla/5.0 (Windows NT 10.0; Win64; x64) AppleWebKit/537.36 (KHTML, like Gecko) draw.io/22.1.11 Chrome/114.0.5735.289 Electron/25.9.8 Safari/537.36" etag="ComKa2T28tyN8HaINq21" version="22.1.11" type="device">
  <diagram name="第 1 页" id="O6uOVdTDUR0QrCJ4K0o4">
    <mxGraphModel dx="1098" dy="828" grid="1" gridSize="10" guides="1" tooltips="1" connect="1" arrows="1" fold="1" page="1" pageScale="1" pageWidth="827" pageHeight="1169" math="0" shadow="0">
      <root>
        <mxCell id="0" />
        <mxCell id="1" parent="0" />
        <mxCell id="Ru-9ZvqcxpV2bIFkZtg5-6" style="edgeStyle=orthogonalEdgeStyle;rounded=0;orthogonalLoop=1;jettySize=auto;html=1;endArrow=blockThin;endFill=1;dashed=1;" edge="1" parent="1" source="Ru-9ZvqcxpV2bIFkZtg5-1" target="Ru-9ZvqcxpV2bIFkZtg5-2">
          <mxGeometry relative="1" as="geometry" />
        </mxCell>
        <mxCell id="Ru-9ZvqcxpV2bIFkZtg5-1" value="顶点着色器" style="rounded=1;whiteSpace=wrap;html=1;" vertex="1" parent="1">
          <mxGeometry x="120" y="320" width="120" height="60" as="geometry" />
        </mxCell>
        <mxCell id="Ru-9ZvqcxpV2bIFkZtg5-4" style="edgeStyle=orthogonalEdgeStyle;rounded=0;orthogonalLoop=1;jettySize=auto;html=1;entryX=1;entryY=0.5;entryDx=0;entryDy=0;endArrow=blockThin;endFill=1;" edge="1" parent="1" source="Ru-9ZvqcxpV2bIFkZtg5-2" target="Ru-9ZvqcxpV2bIFkZtg5-3">
          <mxGeometry relative="1" as="geometry">
            <Array as="points">
              <mxPoint x="540" y="460" />
            </Array>
          </mxGeometry>
        </mxCell>
        <mxCell id="Ru-9ZvqcxpV2bIFkZtg5-8" value="顶点" style="edgeLabel;html=1;align=center;verticalAlign=middle;resizable=0;points=[];" vertex="1" connectable="0" parent="Ru-9ZvqcxpV2bIFkZtg5-4">
          <mxGeometry x="0.4111" y="1" relative="1" as="geometry">
            <mxPoint as="offset" />
          </mxGeometry>
        </mxCell>
        <mxCell id="Ru-9ZvqcxpV2bIFkZtg5-2" value="变换反馈" style="rounded=1;whiteSpace=wrap;html=1;" vertex="1" parent="1">
          <mxGeometry x="480" y="320" width="120" height="60" as="geometry" />
        </mxCell>
        <mxCell id="Ru-9ZvqcxpV2bIFkZtg5-5" style="edgeStyle=orthogonalEdgeStyle;rounded=0;orthogonalLoop=1;jettySize=auto;html=1;endArrow=blockThin;endFill=1;" edge="1" parent="1" source="Ru-9ZvqcxpV2bIFkZtg5-3" target="Ru-9ZvqcxpV2bIFkZtg5-1">
          <mxGeometry relative="1" as="geometry" />
        </mxCell>
        <mxCell id="Ru-9ZvqcxpV2bIFkZtg5-9" value="顶点" style="edgeLabel;html=1;align=center;verticalAlign=middle;resizable=0;points=[];" vertex="1" connectable="0" parent="Ru-9ZvqcxpV2bIFkZtg5-5">
          <mxGeometry x="-0.3889" y="1" relative="1" as="geometry">
            <mxPoint as="offset" />
          </mxGeometry>
        </mxCell>
        <mxCell id="Ru-9ZvqcxpV2bIFkZtg5-3" value="变换反馈缓冲" style="rounded=1;whiteSpace=wrap;html=1;" vertex="1" parent="1">
          <mxGeometry x="280" y="440" width="160" height="40" as="geometry" />
        </mxCell>
      </root>
    </mxGraphModel>
  </diagram>
</mxfile>
